<?xml version="1.0" standalone="no"?>
<!DOCTYPE svg PUBLIC "-//W3C//DTD SVG 20010904//EN"
 "http://www.w3.org/TR/2001/REC-SVG-20010904/DTD/svg10.dtd">
<svg version="1.0" xmlns="http://www.w3.org/2000/svg"
 width="512.000000pt" height="512.000000pt" viewBox="0 0 512.000000 512.000000"
 preserveAspectRatio="xMidYMid meet">
<metadata>
Created by potrace 1.14, written by Peter Selinger 2001-2017
</metadata>
<g transform="translate(0.000000,512.000000) scale(0.100000,-0.100000)"
fill="#000000" stroke="none">
<path d="M2124 2911 c-53 -24 -58 -34 -39 -70 22 -43 29 -45 82 -16 78 41 133
27 133 -34 0 -37 -34 -66 -97 -81 -28 -6 -59 -17 -68 -24 -15 -11 -15 -15 5
-49 25 -42 25 -42 73 -22 20 8 47 15 60 15 33 0 67 -40 67 -77 0 -40 -41 -89
-80 -98 -59 -13 -143 54 -191 152 -22 45 -38 53 -59 28 -15 -18 -8 -40 39
-112 68 -105 136 -152 219 -153 81 0 134 44 142 121 3 27 8 49 13 49 4 0 27 0
52 0 l45 0 0 -105 c0 -104 0 -106 26 -115 56 -22 54 -33 54 260 l0 270 59 0
c58 0 59 -1 65 -31 3 -17 6 -137 6 -266 0 -211 2 -235 16 -229 9 3 26 9 39 12
28 7 35 29 35 122 l0 72 44 0 c55 0 96 -32 131 -100 19 -38 31 -49 56 -54 47
-9 79 -7 79 4 0 18 -38 86 -67 120 -26 31 -26 34 -9 44 43 25 80 62 92 93 22
52 18 151 -8 203 -40 79 -44 80 -420 80 -350 0 -346 1 -312 -48 12 -18 25 -22
65 -22 l49 0 0 -106 0 -105 -36 -15 c-44 -18 -84 -11 -113 20 -18 19 -20 27
-11 50 26 71 -6 170 -70 214 -41 28 -109 29 -166 3z m903 -96 c35 -25 48 -83
29 -128 -20 -49 -63 -67 -161 -67 l-75 0 0 105 0 105 93 0 c67 0 99 -4 114
-15z"/>
</g>
</svg>
